<svg xmlns="http://www.w3.org/2000/svg" viewBox="0 0 256 416" width="256" height="416" fill="#231F20">
  <path d="M201.816 230.216c-16.186 0-30.697 7.171-40.634 18.461l-25.463-18.026c2.703-7.442 4.255-15.433 4.255-23.797 0-8.291-1.532-16.213-4.184-23.604l25.406-17.969c9.936 11.292 24.45 18.461 40.638 18.461 29.875 0 54.183-24.305 54.183-54.18 0-29.879-24.308-54.187-54.183-54.187-29.875 0-54.18 24.308-54.18 54.187 0 5.28.779 10.373 2.197 15.196l-25.422 17.98c-11.553-12.85-27.755-21.348-45.943-22.92v-30.297c24.692-5.241 43.273-27.211 43.273-53.443C121.535 24.305 97.231 0 67.352 0 37.477 0 13.169 24.305 13.169 54.18c0 26.232 18.585 48.202 43.281 53.443v30.301c-31.937 2.762-57.072 29.616-57.072 62.263 0 32.653 25.135 59.504 57.072 62.266v30.305c-24.696 5.241-43.281 27.207-43.281 53.435 0 29.879 24.308 54.183 54.183 54.183 29.879 0 54.183-24.304 54.183-54.183 0-26.228-18.581-48.194-43.273-53.435v-30.305c18.188-1.568 34.39-10.07 45.943-22.92l25.422 17.984c-1.418 4.823-2.197 9.913-2.197 15.193 0 29.875 24.305 54.18 54.18 54.18 29.875 0 54.183-24.305 54.183-54.18 0-29.879-24.308-54.187-54.183-54.187zm0-126.55c14.487 0 26.27 11.788 26.27 26.275 0 14.483-11.783 26.266-26.27 26.266-14.483 0-26.266-11.783-26.266-26.266 0-14.487 11.783-26.275 26.266-26.275zM41.082 54.18c0-14.487 11.783-26.27 26.27-26.27 14.483 0 26.266 11.783 26.266 26.27 0 14.483-11.783 26.27-26.266 26.27-14.487 0-26.27-11.787-26.27-26.27zm52.536 307.636c0 14.483-11.783 26.27-26.266 26.27-14.487 0-26.27-11.787-26.27-26.27 0-14.487 11.783-26.27 26.27-26.27 14.483 0 26.266 11.783 26.266 26.27zM67.352 234.097c-15.939 0-28.902-12.963-28.902-28.902 0-15.939 12.963-28.906 28.902-28.906 15.935 0 28.898 12.967 28.898 28.906 0 15.939-12.963 28.902-28.898 28.902zm134.464 77.984c-14.483 0-26.266-11.787-26.266-26.27 0-14.487 11.783-26.27 26.266-26.27 14.487 0 26.27 11.783 26.27 26.27 0 14.483-11.783 26.27-26.27 26.27z"/>
</svg>
